<?xml version="1.0" encoding="UTF-8" standalone="no"?>
<svg
   xmlns:dc="http://purl.org/dc/elements/1.1/"
   xmlns:cc="http://creativecommons.org/ns#"
   xmlns:rdf="http://www.w3.org/1999/02/22-rdf-syntax-ns#"
   xmlns:svg="http://www.w3.org/2000/svg"
   xmlns="http://www.w3.org/2000/svg"
   xmlns:sodipodi="http://sodipodi.sourceforge.net/DTD/sodipodi-0.dtd"
   xmlns:inkscape="http://www.inkscape.org/namespaces/inkscape"
   width="147.99274mm"
   height="57.810169mm"
   viewBox="0 0 147.99274 57.810169"
   version="1.1"
   id="svg8"
   inkscape:version="1.0.1 (3bc2e813f5, 2020-09-07)"
   sodipodi:docname="LOGOsvg.svg">
  <defs
     id="defs2" />
  <sodipodi:namedview
     id="base"
     pagecolor="#ffffff"
     bordercolor="#666666"
     borderopacity="1.0"
     inkscape:pageopacity="0.0"
     inkscape:pageshadow="2"
     inkscape:zoom="0.49917266"
     inkscape:cx="673.82306"
     inkscape:cy="167.88403"
     inkscape:document-units="mm"
     inkscape:current-layer="layer1"
     inkscape:document-rotation="0"
     showgrid="false"
     inkscape:window-width="1366"
     inkscape:window-height="702"
     inkscape:window-x="-8"
     inkscape:window-y="-8"
     inkscape:window-maximized="1"
     inkscape:snap-intersection-paths="true"
     inkscape:snap-bbox="true"
     inkscape:bbox-paths="true"
     inkscape:bbox-nodes="true"
     inkscape:snap-bbox-midpoints="true"
     showguides="true"
     inkscape:snap-smooth-nodes="false"
     inkscape:snap-bbox-edge-midpoints="true"
     inkscape:snap-global="true" />
  <metadata
     id="metadata5">
    <rdf:RDF>
      <cc:Work
         rdf:about="">
        <dc:format>image/svg+xml</dc:format>
        <dc:type
           rdf:resource="http://purl.org/dc/dcmitype/StillImage" />
        <dc:title></dc:title>
      </cc:Work>
    </rdf:RDF>
  </metadata>
  <g
     inkscape:label="Слой 1"
     inkscape:groupmode="layer"
     id="layer1"
     transform="translate(-31.243726,-109.36926)">
    <text
       xml:space="preserve"
       style="font-style:normal;font-weight:normal;font-size:10.5833px;line-height:1.25;font-family:sans-serif;fill:#000000;fill-opacity:1;stroke:none;stroke-width:0.264583"
       x="1953.2057"
       y="1376.9725"
       id="text1812"><tspan
         sodipodi:role="line"
         id="tspan1810"
         x="1953.2057"
         y="1376.9725"
         style="stroke-width:0.264583" /><tspan
         sodipodi:role="line"
         x="1953.2057"
         y="1390.2017"
         style="stroke-width:0.264583"
         id="tspan1814" /></text>
    <path
       id="rect554"
       style="font-variation-settings:normal;opacity:1;vector-effect:none;fill:#000000;fill-opacity:1;fill-rule:evenodd;stroke:none;stroke-width:0;stroke-linecap:butt;stroke-linejoin:miter;stroke-miterlimit:4;stroke-dasharray:none;stroke-dashoffset:0;stroke-opacity:1;stop-color:#000000;stop-opacity:1"
       d="m 47.249084,143.97333 c -20.253173,-1.1476 -20.774363,-32.09497 -1.06772,-34.50535 l 16.58049,-0.0662 c -3.81538,3.55743 -5.69785,7.25452 -0.4615,11.515 l -14.30584,0.0137 c -7.6765,1.25306 -6.44007,11.077 -0.3876,11.54605 l 27.34295,0.1939 c 20.855341,2.9691 21.590961,28.7766 1.58826,34.4886 -13.14204,-0.042 -27.70831,-0.1937 -40.85023,-0.1458 -8.260453,-4.0035 -3.094433,-11.383 0.24548,-11.2433 l 40.15998,-0.4888 c 3.43738,-1.3466 5.85242,-8.1652 0.035,-11.2795 z"
       sodipodi:nodetypes="ccccccccccccc" />
    <path
       id="rect559"
       style="font-variation-settings:normal;opacity:1;vector-effect:none;fill:#000000;fill-opacity:1;fill-rule:evenodd;stroke:none;stroke-width:0;stroke-linecap:butt;stroke-linejoin:miter;stroke-miterlimit:4;stroke-dasharray:none;stroke-dashoffset:0;stroke-opacity:1;stop-color:#000000;stop-opacity:1"
       d="m 67.761144,109.39466 h 40.806076 c 20.55968,4.52017 25.19424,20.12275 24.69128,32.59057 7.58052,24.2148 34.32494,11.6144 34.57281,-1.6311 l 0.19288,-26.18553 c -0.14995,-5.18491 10.23822,-7.41483 11.01296,-0.22752 l 0.19932,28.93265 c -3.40577,12.6899 -9.85835,22.5769 -25.72756,23.8562 -12.35157,0.9636 -20.15413,-3.8853 -26.1738,-11.0124 -5.29768,6.4152 -11.72348,10.104 -19.14114,11.3959 l -23.670195,0.066 c 4.39335,-3.4447 8.60186,-6.9525 9.44389,-11.6102 l 13.755635,0.035 c 19.50749,-6.373 17.7949,-29.24531 -0.27514,-34.58872 L 67.761144,120.883 c -7.96003,-0.64592 -5.70447,-11.46492 0,-11.48895 z"
       sodipodi:nodetypes="ccccccccccccccccc" />
    <ellipse
       style="opacity:1;fill:#000000;fill-opacity:1;fill-rule:evenodd;stroke:#150404;stroke-width:0.209105"
       id="path562"
       cx="109.64476"
       cy="138.14561"
       rx="8.9905872"
       ry="9.1311369" />
    <path
       id="rect564"
       style="font-variation-settings:normal;opacity:1;vector-effect:none;fill:#000000;fill-opacity:1;fill-rule:evenodd;stroke:none;stroke-width:0;stroke-linecap:butt;stroke-linejoin:miter;stroke-miterlimit:4;stroke-dasharray:none;stroke-dashoffset:0;stroke-opacity:1;stop-color:#000000;stop-opacity:1"
       d="m 144.93057,120.11893 c 3.65336,-1.3752 7.14628,-3.59846 10.1846,-8.22459 l 1.06502,1.55018 0.0549,26.12031 c -2.19545,6.0485 -10.71377,4.0699 -11.23826,-0.033 z"
       sodipodi:nodetypes="cccccc" />
    <path
       id="rect568"
       style="font-variation-settings:normal;opacity:1;vector-effect:none;fill:#000000;fill-opacity:1;fill-rule:evenodd;stroke:none;stroke-width:0;stroke-linecap:butt;stroke-linejoin:miter;stroke-miterlimit:4;stroke-dasharray:none;stroke-dashoffset:0;stroke-opacity:1;stop-color:#000000;stop-opacity:1"
       d="m 133.46989,113.24219 -0.0586,10.28403 c -2.47295,-4.7409 -5.69933,-8.64488 -10.18872,-11.86346 2.66771,-2.45218 7.14283,-4.18954 10.24734,1.57943 z"
       sodipodi:nodetypes="cccc" />
  </g>
</svg>
