<?xml version="1.0" encoding="UTF-8" standalone="no"?>
<svg
   xmlns:dc="http://purl.org/dc/elements/1.1/"
   xmlns:cc="http://creativecommons.org/ns#"
   xmlns:rdf="http://www.w3.org/1999/02/22-rdf-syntax-ns#"
   xmlns:svg="http://www.w3.org/2000/svg"
   xmlns="http://www.w3.org/2000/svg"
   xmlns:sodipodi="http://sodipodi.sourceforge.net/DTD/sodipodi-0.dtd"
   xmlns:inkscape="http://www.inkscape.org/namespaces/inkscape"
   width="210mm"
   height="297mm"
   viewBox="0 0 210 297"
   version="1.1"
   id="svg8"
   inkscape:version="1.0.1 (3bc2e813f5, 2020-09-07)"
   sodipodi:docname="sdu-logo.svg">
  <defs
     id="defs2" />
  <sodipodi:namedview
     id="base"
     pagecolor="#ffffff"
     bordercolor="#666666"
     borderopacity="1.0"
     inkscape:pageopacity="0.0"
     inkscape:pageshadow="2"
     inkscape:zoom="0.49917266"
     inkscape:cx="553.93725"
     inkscape:cy="887.47481"
     inkscape:document-units="mm"
     inkscape:current-layer="layer1"
     inkscape:document-rotation="0"
     showgrid="false"
     inkscape:window-width="1366"
     inkscape:window-height="702"
     inkscape:window-x="-8"
     inkscape:window-y="-8"
     inkscape:window-maximized="1"
     inkscape:snap-intersection-paths="true"
     inkscape:snap-bbox="true"
     inkscape:bbox-paths="true"
     inkscape:bbox-nodes="true"
     inkscape:snap-bbox-midpoints="true"
     showguides="true"
     inkscape:snap-smooth-nodes="false"
     inkscape:snap-bbox-edge-midpoints="true"
     inkscape:snap-global="true" />
  <metadata
     id="metadata5">
    <rdf:RDF>
      <cc:Work
         rdf:about="">
        <dc:format>image/svg+xml</dc:format>
        <dc:type
           rdf:resource="http://purl.org/dc/dcmitype/StillImage" />
        <dc:title />
      </cc:Work>
    </rdf:RDF>
  </metadata>
  <g
     inkscape:label="Слой 1"
     inkscape:groupmode="layer"
     id="layer1">
    <text
       xml:space="preserve"
       style="font-style:normal;font-weight:normal;font-size:10.5833px;line-height:1.25;font-family:sans-serif;fill:#000000;fill-opacity:1;stroke:none;stroke-width:0.264583"
       x="1953.2057"
       y="1376.9725"
       id="text1812"><tspan
         sodipodi:role="line"
         id="tspan1810"
         x="1953.2057"
         y="1376.9725"
         style="stroke-width:0.264583" /><tspan
         sodipodi:role="line"
         x="1953.2057"
         y="1390.2017"
         style="stroke-width:0.264583"
         id="tspan1814" /></text>
    <path
       id="rect554"
       style="font-variation-settings:normal;opacity:1;vector-effect:none;fill:#000000;fill-opacity:1;fill-rule:evenodd;stroke:none;stroke-width:0;stroke-linecap:butt;stroke-linejoin:miter;stroke-miterlimit:4;stroke-dasharray:none;stroke-dashoffset:0;stroke-opacity:1;stop-color:#000000;stop-opacity:1"
       d="m 50.699489,189.15052 c -20.25317,-1.14765 -20.77436,-32.095 -1.06772,-34.50538 l 16.58049,-0.0662 c -3.81538,3.55743 -5.69785,7.25452 -0.4615,11.515 l -14.30584,0.0137 c -7.6765,1.25306 -6.44007,11.077 -0.3876,11.54605 l 27.34295,0.1939 c 20.85534,2.96907 21.59096,28.77665 1.58826,34.48863 -13.14204,-0.0415 -27.70831,-0.19373 -40.85023,-0.14587 -8.26045,-4.00341 -3.09443,-11.38292 0.24548,-11.24324 l 40.15998,-0.48885 c 3.43738,-1.34656 5.85242,-8.16521 0.035,-11.27951 z"
       sodipodi:nodetypes="ccccccccccccc" />
    <path
       id="rect559"
       style="font-variation-settings:normal;opacity:1;vector-effect:none;fill:#000000;fill-opacity:1;fill-rule:evenodd;stroke:none;stroke-width:0;stroke-linecap:butt;stroke-linejoin:miter;stroke-miterlimit:4;stroke-dasharray:none;stroke-dashoffset:0;stroke-opacity:1;stop-color:#000000;stop-opacity:1"
       d="m 71.211549,154.57182 h 40.806081 c 20.55968,4.52017 25.19424,20.12275 24.69128,32.59061 7.58052,24.21481 34.32494,11.6144 34.57281,-1.6311 l 0.19288,-26.18557 c -0.14995,-5.18491 10.23822,-7.41483 11.01296,-0.22752 l 0.19932,28.93268 c -3.40577,12.68985 -9.85835,22.57686 -25.72756,23.85613 -12.35157,0.96368 -20.15413,-3.88526 -26.1738,-11.01236 -5.29768,6.41517 -11.72348,10.10405 -19.14114,11.39594 l -23.670201,0.0663 c 4.39335,-3.4447 8.60186,-6.95254 9.44389,-11.61023 l 13.755641,0.0353 c 19.50749,-6.37303 17.7949,-29.24532 -0.27514,-34.58873 l -39.687021,-0.13251 c -7.96003,-0.64592 -5.70447,-11.46492 0,-11.48895 z"
       sodipodi:nodetypes="ccccccccccccccccc" />
    <ellipse
       style="opacity:1;fill:#000000;fill-opacity:1;fill-rule:evenodd;stroke:#150404;stroke-width:0.209105"
       id="path562"
       cx="113.09518"
       cy="183.32281"
       rx="8.9905872"
       ry="9.1311369" />
    <path
       id="rect564"
       style="font-variation-settings:normal;opacity:1;vector-effect:none;fill:#000000;fill-opacity:1;fill-rule:evenodd;stroke:none;stroke-width:0;stroke-linecap:butt;stroke-linejoin:miter;stroke-miterlimit:4;stroke-dasharray:none;stroke-dashoffset:0;stroke-opacity:1;stop-color:#000000;stop-opacity:1"
       d="m 148.38098,165.29609 c 3.65336,-1.3752 7.14628,-3.59846 10.1846,-8.22459 l 1.06502,1.55018 0.0549,26.12036 c -2.19545,6.04848 -10.71377,4.06982 -11.23826,-0.0331 z"
       sodipodi:nodetypes="cccccc" />
    <path
       id="rect568"
       style="font-variation-settings:normal;opacity:1;vector-effect:none;fill:#000000;fill-opacity:1;fill-rule:evenodd;stroke:none;stroke-width:0;stroke-linecap:butt;stroke-linejoin:miter;stroke-miterlimit:4;stroke-dasharray:none;stroke-dashoffset:0;stroke-opacity:1;stop-color:#000000;stop-opacity:1"
       d="m 136.9203,158.41935 -0.0586,10.28403 c -2.47295,-4.7409 -5.69933,-8.64488 -10.18872,-11.86346 2.66771,-2.45218 7.14283,-4.18954 10.24734,1.57943 z"
       sodipodi:nodetypes="cccc" />
  </g>
</svg>
